<?xml version="1.0" standalone="no"?><!DOCTYPE svg PUBLIC "-//W3C//DTD SVG 1.1//EN" "http://www.w3.org/Graphics/SVG/1.1/DTD/svg11.dtd"><svg t="1524278849502" class="icon" style="" viewBox="0 0 1024 1024" version="1.1" xmlns="http://www.w3.org/2000/svg" p-id="4991" data-spm-anchor-id="a313x.7781069.0.i10" xmlns:xlink="http://www.w3.org/1999/xlink" width="128" height="128"><defs><style type="text/css"></style></defs><path d="M802.133333 192L981.333333 311.466667v234.666666C981.333333 810.666667 772.266667 1024 512 1024S42.666667 810.666667 42.666667 550.4V311.466667L482.133333 4.266667c8.533333 0 17.066667-4.266667 29.866667-4.266667s21.333333 4.266667 29.866667 8.533333l251.733333 174.933334 8.533333 8.533333z m64 358.4v-170.666667l-166.4-115.2-174.933333-123.733333c-4.266667 0-4.266667-4.266667-8.533333-4.266667s-8.533333 0-8.533334 4.266667l-341.333333 238.933333v170.666667c0 196.266667 157.866667 358.4 354.133333 358.4 183.466667-4.266667 345.6-162.133333 345.6-358.4z m-145.066666 0c0 115.2-93.866667 209.066667-209.066667 209.066667s-209.066667-93.866667-209.066667-209.066667c0-34.133333 25.6-59.733333 59.733334-59.733333s59.733333 25.6 59.733333 59.733333c0 51.2 38.4 93.866667 89.6 93.866667s89.6-38.4 89.6-93.866667c0-34.133333 25.6-59.733333 59.733333-59.733333 34.133333 0 59.733333 25.6 59.733334 59.733333z" p-id="4992" fill="#ccc"></path></svg>